<svg width="300" height="500" viewBox="0 0 300 500" fill="none" xmlns="http://www.w3.org/2000/svg">
<path d="M47.4895 26.0626C55.738 2.38542 33.742 -11.9896 19.9944 13.3782C6.24679 38.746 1.49842 61.2534 1.49823 92.0341C1.49803 122.815 -1.87265 185.69 1.49803 280.562C4.8687 375.434 9.80936 435.034 19.9945 470.009C30.1796 504.984 54.6954 514.715 47.4895 470.009C40.2836 425.303 31.0121 380.3 26.8273 280.562C22.6424 180.825 26.8273 138.254 31.5765 92.0341C36.3257 45.8144 37.1789 55.659 47.4895 26.0626Z" fill="#193E47"/>
<path fillRule="evenodd" clipRule="evenodd" d="M299.993 84.3912C299.993 49.5237 279.017 27.2247 254.875 14.6561C237.936 5.83721 171.504 3.20622 118.335 2.84148C99.7339 0.562997 73.7824 21.2036 62.5316 49.5237C51.2808 77.8438 48.6797 164.234 48.6797 253.803C48.6797 346.522 55.012 422.06 62.5316 462.664C70.0512 503.268 107.254 510.911 128.229 469.962C132.333 461.95 141.406 448.118 153.346 429.914C202.436 355.072 299.993 206.338 299.993 84.3912ZM250.568 113.463C250.568 140.781 228.95 162.927 202.284 162.927C175.617 162.927 154 140.781 154 113.463C154 86.1455 175.617 64 202.284 64C228.95 64 250.568 86.1455 250.568 113.463ZM90.1192 395.104C103.229 395.104 125.492 325.077 125.492 247.634C125.492 170.19 103.229 104 90.1192 104C77.895 104 77.9461 161.551 78.0088 232.112C78.0133 237.223 78.0179 242.403 78.0179 247.634C78.0179 252.849 78.0134 258.031 78.0088 263.16C77.9461 334.192 77.8924 395.104 90.1192 395.104Z" fill="#187C95"/>
</svg>
