<svg width="500" height="500" viewBox="0 0 500 500" fill="none" xmlns="http://www.w3.org/2000/svg">
<path d="M79.1491 26.0626C92.8966 2.38542 56.2366 -11.9896 33.324 13.3782C10.4113 38.746 2.49737 61.2534 2.49705 92.0341C2.49672 122.815 -3.12108 185.69 2.49671 280.562C8.1145 375.434 16.3489 435.034 33.3241 470.009C50.2993 504.984 91.159 514.715 79.1491 470.009C67.1393 425.303 51.6868 380.3 44.7121 280.562C37.7374 180.825 44.7121 138.254 52.6275 92.0341C60.5428 45.8144 61.9647 55.659 79.1491 26.0626Z" fill="#84C0CA"/>
<path fill-rule="evenodd" clip-rule="evenodd" d="M499.988 84.3912C498.009 53.1726 465.029 27.2246 424.792 14.6561C396.56 5.83721 285.84 3.20622 197.225 2.84148C166.223 0.562997 122.971 21.2036 104.219 49.5237C85.468 77.8438 81.1328 164.234 81.1328 253.803C81.1328 346.522 91.6867 422.06 104.219 462.664C116.752 503.268 178.756 510.911 213.715 469.962C248.675 429.012 501.967 115.61 499.988 84.3912ZM406.323 105.413C406.323 132.731 370.294 154.877 325.85 154.877C281.406 154.877 245.377 132.731 245.377 105.413C245.377 78.0957 281.406 55.9502 325.85 55.9502C370.294 55.9502 406.323 78.0957 406.323 105.413ZM148.164 403.004C170.014 403.004 207.119 332.978 207.119 255.534C207.119 178.091 170.014 111.901 148.164 111.901C127.79 111.901 127.876 169.451 127.98 240.013C127.988 245.124 127.995 250.303 127.995 255.534C127.995 260.75 127.988 265.932 127.98 271.061C127.876 342.092 127.786 403.004 148.164 403.004Z" fill="#187C95"/>
</svg>
